<svg xmlns="http://www.w3.org/2000/svg" width="62" height="14" viewBox="0 0 62 14">
    <g fill="none" fill-rule="evenodd">
        <path fill="#9DB4BF" d="M18.18 8.695c0-1.25.338-2.28 1.015-3.09.677-.81 1.597-1.214 2.758-1.214 1.172 0 2.098.403 2.777 1.21.68.808 1.02 1.84 1.02 3.094v.172c0 1.26-.339 2.292-1.016 3.094s-1.599 1.203-2.765 1.203c-1.167 0-2.09-.402-2.77-1.207-.68-.805-1.02-1.835-1.02-3.09v-.172zm1.539.172c0 .896.189 1.636.566 2.219.378.583.939.875 1.684.875.734 0 1.291-.292 1.672-.875.38-.583.57-1.323.57-2.219v-.172c0-.885-.191-1.622-.574-2.21-.383-.59-.944-.883-1.684-.883-.734 0-1.29.294-1.668.882-.377.589-.566 1.326-.566 2.211v.172zM28.273 13V5.687h-1.32v-1.14h1.32v-1.07c0-.901.236-1.598.707-2.09.472-.492 1.13-.739 1.973-.739.177 0 .356.015.535.043.18.03.38.07.598.122l-.188 1.171a3.579 3.579 0 0 0-.758-.078c-.447 0-.78.134-1 .403-.218.268-.328.657-.328 1.168v1.07h1.532v1.14h-1.532V13h-1.539zm5.266 0V5.687h-1.32v-1.14h1.32v-1.07c0-.901.236-1.598.707-2.09.471-.492 1.129-.739 1.973-.739.177 0 .355.015.535.043.18.03.379.07.598.122l-.188 1.171a3.579 3.579 0 0 0-.758-.078c-.448 0-.781.134-1 .403-.219.268-.328.657-.328 1.168v1.07h1.531v1.14h-1.53V13h-1.54zm6.29 0h-1.54V.812h1.54V13zm4.03 0H42.32V4.547h1.54V13zm0-10.617H42.32V.813h1.54v1.57zm3.743 2.164l.109 1.258a3.07 3.07 0 0 1 1.059-1.043 2.824 2.824 0 0 1 1.449-.371c.911 0 1.617.267 2.117.8.5.534.75 1.358.75 2.473V13h-1.54V7.695c0-.744-.146-1.273-.44-1.586-.295-.312-.744-.468-1.348-.468-.474 0-.876.095-1.207.285-.33.19-.593.457-.785.8V13h-1.54V4.547h1.376zm11.218 8.617c-1.213 0-2.16-.388-2.84-1.164-.68-.776-1.02-1.797-1.02-3.063v-.343c0-1.214.351-2.218 1.052-3.012.7-.794 1.556-1.191 2.566-1.191 1.13 0 1.978.351 2.543 1.054.565.703.848 1.638.848 2.805v.813h-5.407l-.023.039c0 .849.188 1.537.563 2.066.375.529.947.793 1.718.793.521 0 .978-.074 1.371-.223a3.06 3.06 0 0 0 1.012-.613l.602 1c-.302.292-.7.538-1.196.738-.494.2-1.09.301-1.789.301zm-.242-7.562c-.536 0-.98.207-1.332.62-.351.415-.566.945-.644 1.59l.015.04h3.813v-.125c0-.615-.151-1.123-.453-1.524-.303-.4-.769-.601-1.399-.601z"/>
        <path fill="#9B9B9B" fill-rule="nonzero" d="M5.506 13L11 6.341C10.788 6.183 8.671 4.5 5.5 4.5S.212 6.183 0 6.341L5.494 13h.012z"/>
    </g>
</svg>
